<?xml version="1.0" encoding="UTF-8"?>
<svg width="50px" height="44px" viewBox="0 0 50 44" version="1.1" xmlns="http://www.w3.org/2000/svg" xmlns:xlink="http://www.w3.org/1999/xlink">
    <!-- Generator: Sketch 47.1 (45422) - http://www.bohemiancoding.com/sketch -->
    <title>Page 1</title>
    <desc>Created with Sketch.</desc>
    <defs>
        <polygon id="path-1" points="0.0154414551 11.3768584 6.18633952 11.3768584 6.18633952 0.305421245 0.0154414551 0.305421245 0.0154414551 11.3768584"></polygon>
    </defs>
    <g id="•-DESIGNER-BRAND-IFRAME" stroke="none" stroke-width="1" fill="none" fill-rule="evenodd">
        <g id="DESIGNER-BRAND-IFRAME-desktop" transform="translate(-679.000000, -10.000000)">
            <g id="Group-4" transform="translate(485.000000, 10.000000)">
                <g id="Page-1" transform="translate(194.000000, 0.000000)">
                    <path d="M4.90431982,18.5813963 L5.18472906,18.7975566 C5.24677908,19.0980952 5.27377795,19.3825167 5.26619932,19.651769 C5.25909435,19.9205473 5.21504358,20.2044947 5.13546798,20.5031373 C5.04168246,20.8529757 4.91095112,21.1667873 4.74232664,21.4436242 C4.57417582,21.7209351 4.37807882,21.9498944 4.15356196,22.130502 C3.92951876,22.3120577 3.69742327,22.4462099 3.45632816,22.5343805 C3.21523304,22.6220771 2.96513831,22.6713769 2.70604396,22.6822797 C2.4483706,22.6936565 2.17601364,22.66 1.89181508,22.5841543 C1.1704244,22.3916958 0.640394089,21.9802327 0.301724138,21.3507132 C-0.0374194766,20.7216677 -0.0904698745,19.9717432 0.141625616,19.1014135 C0.197044335,18.896156 0.259094354,18.7089119 0.32967033,18.5401551 C0.400246306,18.3713984 0.502084123,18.1694592 0.636131111,17.9352855 C0.770178098,17.7011118 0.850227359,17.557479 0.876752558,17.5039129 C0.987116332,17.5868692 1.10032209,17.6565525 1.21352785,17.7134368 C1.39541493,17.8011334 1.6118795,17.8855117 1.86055324,17.9665719 L1.80323986,18.180362 L1.40299356,18.0770222 C1.17468738,18.0400474 0.978116711,18.1182633 0.809965897,18.3121439 C0.642288746,18.5060246 0.500189466,18.8179401 0.386036378,19.2469425 C0.305039788,19.5688128 0.273777947,19.8522861 0.291777189,20.0968886 C0.309776431,20.3414911 0.379878742,20.5718724 0.503031452,20.7875587 C0.625236833,21.002771 0.80143994,21.1994958 1.03116711,21.3772592 C1.26089428,21.5545486 1.57067071,21.6972334 1.96097006,21.8034174 C2.6444676,21.9868692 3.25123153,21.9247705 3.77889352,21.6185434 C4.30750284,21.3113682 4.66369837,20.8145788 4.84700644,20.1277009 C4.92989769,19.8186296 4.96400152,19.519513 4.94931792,19.2327214 C4.93984464,19.0364706 4.8953202,18.8321612 4.81763926,18.6202672 L4.90431982,18.5813963 Z" id="Fill-1" fill="#B8B3A7"></path>
                    <path d="M4.11888973,17.1655462 C4.15204623,17.109136 4.21125426,16.9996337 4.29509284,16.8375135 C4.4532967,16.52702 4.56129216,16.3127559 4.61623721,16.1937729 C4.74838954,15.9121956 4.82938613,15.7240034 4.86064797,15.6306184 C4.81043956,15.6045464 4.77207275,15.585111 4.74460023,15.571838 C4.41019326,15.4154062 4.13309966,15.3680026 3.91237211,15.4301013 C3.69306556,15.4922 3.52965138,15.6358328 3.42307692,15.8628959 C3.31081849,16.102284 3.30702918,16.3350356 3.41028799,16.5620987 C3.51259947,16.7886878 3.74895794,16.9896789 4.11888973,17.1655462 L4.11888973,17.1655462 Z M6.37021599,15.7377505 L6.55115574,15.9468003 C6.57389163,16.1359405 6.58383858,16.2710407 6.58194392,16.3525749 C6.5795756,16.473454 6.56394468,16.6047619 6.53505116,16.7469726 C6.50568397,16.8896574 6.45737022,17.0318681 6.39153088,17.1740789 C6.26032588,17.4532859 6.08364911,17.679401 5.8610269,17.851476 C5.63887836,18.023551 5.38215233,18.1183581 5.09132247,18.1354234 C4.79954528,18.1524887 4.49924214,18.0884939 4.18804471,17.9424908 C3.94458128,17.8277742 3.74043198,17.6917259 3.57607048,17.5329239 C3.41170898,17.374596 3.3027662,17.2314372 3.2497158,17.1024995 C3.21040167,17.0095885 3.17771883,16.8782805 3.14977264,16.7076277 C3.12277378,16.5369748 3.11330049,16.3758026 3.12182645,16.2255333 C3.13082607,16.0250162 3.18056082,15.8273432 3.27197802,15.6329886 C3.38281546,15.3959707 3.53723001,15.2068304 3.73522167,15.0650937 C3.93273967,14.9243051 4.14588859,14.8531997 4.37372111,14.8513036 C4.60202728,14.8498815 4.83222812,14.9039216 5.06811292,15.0138979 C5.12732095,15.04234 5.19647594,15.081685 5.27605153,15.1314587 C5.23484274,15.2973713 5.18984464,15.4433743 5.14153088,15.5675716 C5.05153467,15.8041155 4.95348617,16.036393 4.84596438,16.2648783 L4.36898446,17.2831071 C4.67449792,17.4215255 4.94448655,17.4840983 5.17895036,17.4717733 C5.4143615,17.4589744 5.61803714,17.3850248 5.7895036,17.2499246 C5.96191739,17.1152984 6.09264873,16.9527042 6.18217128,16.7616677 C6.24185297,16.632256 6.28164077,16.4938375 6.29964002,16.3459384 C6.31858659,16.1980392 6.31527094,16.0041586 6.29206139,15.7633484 L6.37021599,15.7377505 Z" id="Fill-3" fill="#B8B3A7"></path>
                    <path d="M7.07464949,15.6371601 L6.90460402,15.5319242 L7.07512315,15.2498729 C7.10022736,15.2048395 7.11301629,15.1669166 7.11443729,15.1361043 C7.11585828,15.1048179 7.10970064,15.0773239 7.09785904,15.053148 C7.07133384,15.0066925 7.00881016,14.9502823 6.90934066,14.8839173 C6.88565745,14.8659039 6.6052482,14.681978 6.06763926,14.3335617 L4.82995453,13.568468 C4.49933687,13.3636846 4.15308829,13.1565309 3.79310345,12.9479552 C3.55058734,12.8081146 3.41038272,12.7370093 3.37391057,12.733691 C3.34785904,12.7313208 3.3232285,12.7389054 3.3019136,12.7559707 C3.2701781,12.7773023 3.1773399,12.9114544 3.02529367,13.157479 L2.84909056,13.0489248 C3.07171277,12.5644602 3.19486548,12.2094075 3.21902236,11.9828184 C3.22281167,11.9491618 3.22944297,11.92546 3.23796893,11.911713 C3.24696855,11.8974919 3.25833649,11.8894333 3.27207275,11.8870631 C3.28628268,11.884693 3.30049261,11.8880112 3.3165972,11.897966 C3.33128079,11.9069726 3.34928003,11.9207197 3.37248958,11.9411032 L3.46959075,12.004624 C3.81868132,12.2345314 4.11803714,12.4279379 4.36718454,12.5853178 L4.82853354,12.8782719 L6.37552103,13.8353501 C6.89749905,14.1463176 7.17980296,14.3136522 7.22243274,14.3383021 C7.32284956,14.3975566 7.40242516,14.4307391 7.46163319,14.4369015 C7.48484274,14.4397457 7.50757863,14.4373756 7.52984085,14.429317 C7.55352406,14.4212583 7.5781546,14.403719 7.6061008,14.376699 C7.61652141,14.3639 7.68851838,14.2543978 7.82067071,14.0481922 L7.99118984,14.1539022 C7.81025009,14.4155699 7.65678287,14.6497436 7.52936718,14.854053 C7.40953013,15.0493557 7.25795756,15.3105495 7.07464949,15.6371601" id="Fill-5" fill="#B8B3A7"></path>
                    <path d="M6.94235506,12.2078431 C6.98924782,12.1604396 7.07119174,12.0680026 7.18913414,11.9286361 C7.41459833,11.662228 7.56711823,11.477354 7.64811482,11.3744883 C7.84042251,11.1303598 7.96262789,10.9658694 8.01425729,10.8814911 C7.97162751,10.8449903 7.93847101,10.8170222 7.91431413,10.7985348 C7.6244316,10.5695755 7.36533725,10.4600733 7.13703107,10.470502 C6.9087249,10.4814049 6.7164172,10.5847447 6.56152899,10.7814695 C6.39858848,10.9886231 6.3412751,11.2147382 6.38958886,11.4588666 C6.43884994,11.702995 6.62263168,11.9528119 6.94235506,12.2078431 L6.94235506,12.2078431 Z M9.45940697,11.3294549 L9.58871732,11.5740573 C9.56787609,11.7631976 9.54703486,11.8973497 9.5266673,11.9765137 C9.49777378,12.0931265 9.45230201,12.2177979 9.39119932,12.3500539 C9.33009663,12.4823098 9.25146836,12.6098255 9.15436718,12.7326007 C8.96395415,12.975307 8.73991095,13.1554406 8.48460591,13.2720534 C8.22882721,13.3891403 7.95694392,13.4227968 7.66990337,13.3730231 C7.38286283,13.3241974 7.10434824,13.1933635 6.83483327,12.9800474 C6.62357901,12.8136608 6.45637552,12.6344753 6.33132815,12.4429649 C6.20722812,12.2509804 6.13381016,12.0860159 6.11060061,11.9490196 C6.09449602,11.8494721 6.09165404,11.7134238 6.10396931,11.5413488 C6.11581091,11.3692739 6.14328344,11.2104719 6.18638689,11.0654169 C6.23991095,10.8729584 6.33322281,10.6918768 6.46679613,10.522646 C6.62878931,10.3169145 6.82204433,10.1680672 7.0465612,10.0756303 C7.27107806,9.98319328 7.49464759,9.9623357 7.71679613,10.0125835 C7.93941834,10.0628313 8.1520936,10.1680672 8.35576923,10.3287654 C8.40739864,10.3695324 8.466133,10.4230985 8.53291967,10.4899375 C8.4542914,10.6430511 8.37755779,10.774359 8.30224517,10.8843353 C8.16061955,11.0943331 8.01188897,11.2981685 7.85652709,11.4963154 L7.16071429,12.3794441 C7.42643994,12.5832795 7.67558734,12.7060547 7.90626184,12.7472958 C8.13788367,12.788537 8.35340091,12.762465 8.55139257,12.670502 C8.7498579,12.5780651 8.91327207,12.4491273 9.04400341,12.2836889 C9.13210496,12.1713424 9.20220728,12.0457229 9.25336302,11.9058824 C9.30451876,11.7660418 9.34620121,11.5764275 9.37841038,11.3365654 L9.45940697,11.3294549 Z" id="Fill-7" fill="#B8B3A7"></path>
                    <path d="M9.23157446,9.12428787 L10.1291682,10.0861064 C10.2087438,10.1714329 10.2641626,10.2216807 10.2968454,10.2368498 C10.3276336,10.252493 10.3863679,10.2572334 10.4702065,10.2515449 C10.5980959,10.2444344 10.7264589,10.2145701 10.8548219,10.1619522 C10.9831849,10.1093342 11.0997063,10.0330144 11.2058071,9.934415 C11.4540072,9.70261151 11.5548977,9.42909287 11.5098996,9.11291101 C11.4639541,8.79720319 11.3100133,8.49808662 11.0466559,8.21603534 C10.8600322,8.01599224 10.6719875,7.8775738 10.4829955,7.80172808 C10.2935297,7.72540832 10.1116427,7.70549881 9.93780788,7.74199957 C9.76349943,7.77850032 9.60671656,7.86098255 9.46888026,7.98992028 C9.30641341,8.14161172 9.20504926,8.32458953 9.16384047,8.53743159 C9.12263168,8.75027365 9.14536756,8.94557638 9.23157446,9.12428787 L9.23157446,9.12428787 Z M10.2992137,11.2237923 C10.118274,10.9896186 10.0031736,10.8431416 9.95154415,10.7853092 C9.61618984,10.4051325 9.41867185,10.1823357 9.35756915,10.1173928 L8.29324555,8.97686275 C8.02704623,8.69149321 7.74805798,8.40043525 7.45533346,8.10463693 C7.2573418,7.90601594 7.14176772,7.80030597 7.10671656,7.78798104 C7.08255968,7.77850032 7.05745548,7.77944839 7.03187761,7.79035122 C6.99493179,7.80267615 6.87130542,7.90743805 6.65910383,8.10511097 L6.51842554,7.95341952 C6.85946381,7.54432665 7.0716654,7.23430726 7.15550398,7.02193924 C7.16876658,6.99112691 7.18060818,6.97026934 7.19244979,6.95889248 C7.2042914,6.94798966 7.21708033,6.94277526 7.23129026,6.94372334 C7.24597385,6.94514544 7.25876279,6.95225598 7.27155172,6.96647705 C7.282446,6.97832795 7.29665593,6.99728938 7.31418151,7.02241327 L7.39044146,7.10963585 C7.66706139,7.4229735 7.90531451,7.68795949 8.10377984,7.90506787 L8.47181698,8.30942038 L8.94453391,8.81663866 L8.97532209,8.13971558 C8.98479538,8.05723335 9.02458318,7.94773109 9.09563282,7.81120879 C9.16668246,7.67421245 9.26141531,7.55048912 9.3807787,7.43861668 C9.56929708,7.26322344 9.77676203,7.151351 10.0041209,7.10347339 C10.2314797,7.05606981 10.4593122,7.07645335 10.6866711,7.16414997 C10.9145036,7.25279466 11.1191266,7.39405732 11.3010136,7.58888602 C11.4416919,7.73915535 11.5525294,7.90317173 11.6339996,8.07951304 C11.7159435,8.25585434 11.7713623,8.4302995 11.7997821,8.60142642 C11.823939,8.72989011 11.831044,8.82564534 11.822518,8.88774402 L11.6993653,9.50730877 C11.6524725,9.76186598 11.6013168,9.94484378 11.5454244,10.0567162 C11.4890584,10.1681146 11.3947992,10.2856755 11.2612258,10.4103469 C11.1470728,10.517005 11.026762,10.6009093 10.9007673,10.6611118 C10.7747726,10.7213144 10.6208318,10.7644516 10.439892,10.7895755 L10.4138405,11.1782849 L10.2992137,11.2237923 Z" id="Fill-9" fill="#B8B3A7"></path>
                    <path d="M12.8932361,8.84953674 L12.7786093,8.6859944 C12.9936529,8.52956259 13.107806,8.44376212 13.1229632,8.4276449 C13.1523304,8.39872872 13.169856,8.37265676 13.1779083,8.34848093 C13.1850133,8.32477914 13.1859606,8.2977591 13.1793293,8.26789485 C13.1674877,8.21053652 13.1310155,8.13326869 13.0689655,8.03703943 C12.7208223,7.5184443 12.5384615,7.24776988 12.5228306,7.22454212 L12.2831565,6.88276234 C12.1761084,6.72917475 12.0572186,6.56610644 11.9288556,6.39403146 C11.8459644,6.28358112 11.7910193,6.22243051 11.7635468,6.21010558 C11.7365479,6.19778065 11.7033914,6.19730661 11.6640773,6.20868347 C11.6252368,6.22053437 11.4978211,6.30396466 11.2808829,6.45850032 L11.1662562,6.29448395 C11.5148731,5.96976945 11.7488632,5.70241327 11.8663319,5.49146736 C11.8914362,5.44548589 11.9103827,5.41751778 11.9236453,5.40803706 C11.9373816,5.39903038 11.9511178,5.39618617 11.9653278,5.40045249 C11.9800114,5.40424477 11.9937476,5.4165697 12.0079576,5.43553114 C12.0164835,5.44880414 12.0264305,5.46492135 12.0368511,5.48340875 C12.108848,5.60713208 12.2301061,5.79200603 12.3996779,6.03897867 C12.4157825,5.87875458 12.4266768,5.72469295 12.4299924,5.57584572 C12.4352027,5.42747253 12.4437287,5.32697694 12.4555703,5.27530705 C12.4783062,5.18524025 12.516673,5.09943978 12.570197,5.01695755 C12.6251421,4.93494936 12.6919288,4.86574014 12.771978,4.80980392 C12.8529746,4.75339367 12.9443918,4.71499677 13.0467033,4.69413919 L13.0926487,4.7221073 C13.241853,4.99752209 13.3825313,5.23311786 13.5142099,5.42936867 L13.3844259,5.52038354 C13.2769041,5.45875889 13.178382,5.42747253 13.0902804,5.42652446 C13.0017052,5.42510235 12.9140773,5.4549666 12.8259757,5.51706529 C12.6786662,5.62040509 12.5957749,5.76877828 12.5777757,5.96313295 C12.5597764,6.15748761 12.635089,6.37649214 12.8056082,6.61967248 L13.0125995,6.9154708 C13.1011747,7.04203835 13.2674308,7.26957552 13.5108943,7.59855635 C13.5966275,7.71564318 13.6539409,7.78817065 13.6847291,7.81566473 C13.7150436,7.84268477 13.7415688,7.85927602 13.7647783,7.86449041 C13.7865669,7.87065288 13.8159341,7.86780866 13.8505116,7.85737988 C13.9201402,7.83462616 14.0873437,7.74313725 14.3525957,7.5833872 L14.4672224,7.74740358 C14.1205002,7.96972635 13.8291967,8.16408102 13.5914172,8.33046757 C13.3460591,8.50254256 13.11349,8.67509158 12.8932361,8.84953674" id="Fill-11" fill="#B8B3A7"></path>
                    <path d="M16.1825502,4.64336996 C15.9357711,4.82919198 15.7316218,4.99937083 15.5701023,5.15438052 C15.4081091,5.30939022 15.3034293,5.43737988 15.2551156,5.53882353 C15.2262221,5.59902607 15.2115385,5.67297565 15.2134331,5.76209438 C15.2129595,5.89387632 15.246116,6.02281405 15.311008,6.14985563 C15.3910572,6.30391726 15.4952634,6.40156863 15.6250474,6.44375781 C15.755305,6.48594699 15.8959833,6.4674596 16.0470822,6.38876966 C16.1863395,6.31671622 16.3033346,6.20531782 16.3971201,6.05504848 C16.4923266,5.90477914 16.5657446,5.7146908 16.6169003,5.48430942 L16.1825502,4.64336996 Z M14.4996211,4.89508296 L14.3125237,4.9367981 C14.2897878,4.88797242 14.257105,4.82208145 14.2140015,4.73912519 C14.1685297,4.65190261 14.1315839,4.58269339 14.1022167,4.53197156 C14.2769989,4.22290024 14.4337817,3.994415 14.570197,3.84651584 C14.6767715,3.7360655 14.8103448,3.63936221 14.9699697,3.55687998 C15.2063282,3.43363068 15.429424,3.37485025 15.63831,3.38006464 C15.8467222,3.38575307 16.0338196,3.45069597 16.1981811,3.57584141 C16.3123342,3.6644861 16.4217507,3.80906701 16.5259568,4.01100625 L16.8054187,4.58885585 L17.2861879,5.51749192 C17.3373437,5.61703943 17.3828155,5.68435251 17.4226033,5.71943116 C17.4510231,5.74408102 17.4827586,5.75687998 17.5168624,5.75735402 C17.544335,5.75925016 17.5917014,5.74502909 17.6608564,5.7146908 L17.8721106,5.62841629 L17.9649488,5.80570567 C17.7868511,5.87965525 17.6333839,5.94981254 17.5050208,6.01665158 C17.3804471,6.08112045 17.2179803,6.17450549 17.0185676,6.29633269 L16.7490527,5.7398147 C16.4923266,6.27974144 16.3336491,6.58976083 16.2758621,6.67129498 C16.218075,6.75282913 16.1290261,6.82488257 16.0087154,6.88698125 C15.7576734,7.01734109 15.5269989,7.0519457 15.3176393,6.99032105 C15.107806,6.9286964 14.9462865,6.78695971 14.8311861,6.56463693 C14.7568208,6.42100409 14.71277,6.27831933 14.701402,6.13421245 C14.6886131,5.99057962 14.6985601,5.86638225 14.7312429,5.7611463 C14.7634521,5.6563844 14.8065555,5.56868778 14.8596059,5.49900452 C14.9505495,5.38002155 15.1153846,5.21837535 15.3526904,5.0135919 C15.5904699,4.80880845 15.834407,4.62251239 16.0830807,4.45328162 C15.9836112,4.25466063 15.8798787,4.11339797 15.7742516,4.02949364 C15.6667298,3.94511528 15.5359985,3.89818574 15.3811103,3.88870502 C15.2262221,3.87969834 15.0632815,3.91904331 14.8937097,4.00721396 C14.770557,4.07073476 14.6720349,4.14326223 14.5967222,4.22432234 C14.5214096,4.30538246 14.4797272,4.36274079 14.4712012,4.39639733 L14.4726222,4.53765999 C14.4806745,4.69124758 14.4906214,4.81023055 14.4996211,4.89508296 L14.4996211,4.89508296 Z" id="Fill-13" fill="#B8B3A7"></path>
                    <path d="M17.1871921,3.18888602 L17.13651,3.05046757 C17.3155551,2.88929541 17.4557598,2.75229907 17.5561766,2.64042663 C17.3629216,2.11851325 17.2392952,1.78526611 17.1852975,1.64021116 C17.3847101,1.47666882 17.538651,1.32355527 17.6480674,1.1808705 L17.7508526,1.21737126 C17.793956,1.40840767 17.9166351,1.81939668 18.1174687,2.45081232 C18.2941455,2.3882396 18.399299,2.34984271 18.4352975,2.33704374 C18.4547177,2.3299332 18.5660288,2.28584788 18.7715991,2.20478776 C18.8838575,2.16070243 18.9676961,2.12467572 19.0226412,2.09670761 L19.053903,2.11140271 L19.0979538,2.44275372 C18.9591701,2.49205344 18.8317545,2.53803491 18.7161804,2.58117216 C18.5991853,2.62430942 18.4386131,2.68498599 18.2335165,2.76367593 L18.7128647,4.10851541 C18.8270178,4.4384443 18.9018568,4.63232493 18.9364343,4.69205344 C18.9714854,4.75178194 19.0122205,4.79918552 19.059587,4.83568627 C19.1083744,4.87123896 19.1618984,4.89399267 19.2215801,4.90442146 C19.2812618,4.91485025 19.3731527,4.90584357 19.4967791,4.87740142 C19.5863016,4.84421892 19.6573513,4.81293256 19.7104017,4.78543848 C19.7629784,4.75699634 19.8269231,4.71101487 19.900341,4.64891618 L19.9870216,4.76268477 C19.914551,4.88214178 19.8458696,5.00349494 19.7823986,5.12674424 C19.7104017,5.18836889 19.6402994,5.23766861 19.5711444,5.27416936 C19.5029367,5.31114415 19.4214665,5.34669683 19.3276809,5.38177548 C19.2106859,5.4244387 19.1140584,5.44577031 19.0349564,5.44482224 C18.9563282,5.4443482 18.8795945,5.43060116 18.8061766,5.4045292 C18.7313376,5.37893126 18.661709,5.33674208 18.5977643,5.27843568 C18.533346,5.21965525 18.4660856,5.11441931 18.3974043,4.9632019 C18.3438803,4.81293256 18.2879879,4.64796811 18.2292535,4.46830855 C18.2178856,4.43228184 18.2050966,4.3934109 18.1894657,4.35169576 L17.6845396,2.98599871 L17.5490716,3.0362465 C17.4396552,3.07653954 17.3183971,3.1277354 17.1871921,3.18888602" id="Fill-15" fill="#B8B3A7"></path>
                    <path d="M19.7844828,0.0146003017 C19.8901099,-0.0138418444 19.9900531,-0.000568842922 20.0833649,0.0539452704 C20.1766768,0.108459384 20.2373058,0.1895195 20.2661993,0.295703512 C20.2936718,0.399517345 20.2808829,0.498590821 20.2264115,0.593397975 C20.1714665,0.687731092 20.0923645,0.749355742 19.9886321,0.776849817 C19.8825313,0.805291963 19.7821144,0.792492997 19.6873816,0.737978884 C19.5931224,0.683464771 19.5320197,0.604300797 19.5035998,0.500012928 C19.4761273,0.393828916 19.4889163,0.293807369 19.542914,0.199000215 C19.5973854,0.104193062 19.6779083,0.0435164835 19.7844828,0.0146003017 M19.4893899,2.21886662 L19.4382342,2.02593407 C19.8626374,1.85859944 20.204623,1.66471881 20.465612,1.44476621 L20.5541872,1.47889679 C20.6654983,1.96478345 20.7550208,2.33547942 20.8241758,2.5909847 L20.9894847,3.20770524 C21.1576355,3.79219134 21.2504737,4.10789916 21.2651573,4.15435466 C21.2973664,4.26670114 21.3324176,4.34633915 21.3688897,4.39184658 C21.3849943,4.40938591 21.4044146,4.42265891 21.4266768,4.43213963 C21.448939,4.44256841 21.4787798,4.44730877 21.5171466,4.4463607 C21.5318302,4.44493859 21.6582986,4.4146003 21.8965517,4.35534583 L21.9481811,4.54827839 C21.6009852,4.62507218 21.3243653,4.69048912 21.118795,4.7459513 C20.9383289,4.79430295 20.6446571,4.88199957 20.2377795,5.00809308 L20.1861501,4.81468649 L20.5091891,4.72461969 C20.5560818,4.70945055 20.5906593,4.69096315 20.6129216,4.66915751 C20.6356574,4.64735186 20.6498674,4.62365008 20.657446,4.59710407 C20.6702349,4.54590821 20.664551,4.46105581 20.6408678,4.34396897 C20.6328155,4.31457875 20.5513452,3.98891618 20.3969307,3.36698125 L20.2363585,2.77017022 C20.1468359,2.43360483 20.0814703,2.23687998 20.0421561,2.17952165 C20.0194202,2.1496574 19.9881584,2.13022193 19.9488443,2.1231114 C19.9090565,2.11552683 19.7555892,2.14776126 19.4893899,2.21886662" id="Fill-17" fill="#B8B3A7"></path>
                    <path d="M22.036709,4.45750054 L22.0101838,4.25982762 L22.3426961,4.21147598 C22.3914835,4.20294333 22.427482,4.18919629 22.4525862,4.1707089 C22.4767431,4.15174747 22.495216,4.12994182 22.5061103,4.10481793 C22.5255305,4.05504417 22.5312145,3.97113984 22.5222149,3.85168283 C22.5188992,3.82134454 22.4800587,3.48809739 22.4075881,2.85099332 L22.352643,2.43716009 C22.3275388,2.25181211 22.297698,2.05224305 22.2631205,1.83987503 C22.2380163,1.7043008 22.2162277,1.62418875 22.1977548,1.600961 C22.1788083,1.57725921 22.1503884,1.56161603 22.1110743,1.55403146 C22.0727075,1.54597285 21.9211349,1.56066796 21.6577776,1.59811679 L21.631726,1.39996983 C22.0907067,1.27292825 22.4213244,1.14304245 22.6231053,1.01031243 C22.6662088,0.980922215 22.6960496,0.964330963 22.7121542,0.96243482 C22.7287325,0.960538677 22.7415214,0.964330963 22.7528894,0.97475975 C22.76331,0.985188537 22.7704149,1.00225382 22.7742042,1.02548158 C22.7765726,1.04112476 22.7765726,1.06008619 22.7775199,1.0814178 C22.7813092,1.16579616 22.7978875,1.34261151 22.826781,1.61281189 L23.3999147,0.973811679 C23.5808545,0.879004525 23.7561103,0.820698125 23.9247347,0.797944409 C24.1123058,0.773294549 24.2956139,0.787989657 24.4741853,0.842029735 C24.6518094,0.896069813 24.790593,0.975707822 24.8905362,1.07999569 C24.9904793,1.18523163 25.065792,1.32365008 25.1169477,1.49667313 C25.1477359,1.59859082 25.1946286,1.88870071 25.2571523,2.36605473 L25.3386226,2.98182719 C25.3793577,3.28331394 25.4144089,3.48762336 25.4456707,3.5942814 C25.4655646,3.66254256 25.4906688,3.70804999 25.5181413,3.73175178 C25.5460875,3.75497953 25.586349,3.76635639 25.6379784,3.76683042 L26.0112258,3.72795949 L26.0372774,3.92610644 C25.8084975,3.94032752 25.6185582,3.95691877 25.4674593,3.97730231 C25.3381489,3.99436759 25.123579,4.03134238 24.8246969,4.0872786 C24.7806461,3.51037707 24.7489106,3.1463176 24.7294903,2.99557423 L24.6518094,2.41156216 C24.6034956,2.04702866 24.5575502,1.81001077 24.5149204,1.70050851 C24.4547651,1.55023917 24.3491379,1.43694462 24.1975654,1.36015083 C24.0459928,1.28335704 23.8716844,1.25823314 23.67464,1.28430511 C23.5003316,1.30705882 23.347338,1.36963154 23.214712,1.4710752 C23.082086,1.57251885 22.9925635,1.68107304 22.9447234,1.79721181 C22.8978306,1.91287654 22.8911993,2.09869856 22.9248295,2.3537298 L22.9811955,2.77467356 C23.0726127,3.37575092 23.1209265,3.70093945 23.1280315,3.74976514 C23.1479254,3.86495583 23.1725559,3.94791209 23.2038177,3.99815988 C23.2151857,4.01759535 23.2317639,4.03371256 23.2526052,4.04651153 C23.2729727,4.05931049 23.3042346,4.0673691 23.3449697,4.07163542 C23.3591796,4.07163542 23.4880163,4.05836242 23.7310061,4.03086835 L23.7575313,4.2290153 C23.4723854,4.25034691 23.2151857,4.27641888 22.9859322,4.30675716 C22.7917298,4.3323551 22.4753221,4.38307692 22.036709,4.45750054" id="Fill-19" fill="#B8B3A7"></path>
                    <path d="M26.9736643,1.66168498 C26.9675066,1.82712346 26.9926108,1.9892437 27.0494505,2.14757164 C27.1058166,2.30637363 27.1929708,2.42725275 27.3104396,2.51068304 C27.4279083,2.59458737 27.5638499,2.63914674 27.7177908,2.64436113 C27.9190981,2.65099763 28.0986169,2.59269123 28.2572944,2.46849386 C28.415972,2.34429649 28.5002842,2.13856496 28.5097575,1.85177332 C28.5206518,1.55787115 28.4514968,1.3213273 28.3037135,1.14214178 C28.1554566,0.962482224 27.9721485,0.869571213 27.7552103,0.861512605 C27.5287988,0.853928033 27.3440697,0.919819005 27.2010231,1.05823745 C27.0584502,1.19665589 26.9826639,1.39764706 26.9736643,1.66168498 M27.9181508,4.04845507 C27.5700076,4.03660418 27.3516484,4.03328593 27.2625995,4.03992243 C27.2176014,4.04561086 27.1669193,4.06694247 27.1096059,4.10486533 C26.9206139,4.2290627 26.8192497,4.29827192 26.8074081,4.31154493 C26.7832512,4.33429864 26.7562524,4.38122818 26.7254642,4.45328162 C26.6719401,4.58221935 26.6425729,4.71305322 26.6378363,4.84673131 C26.6293103,5.09228184 26.7174119,5.30322775 26.9016673,5.47909502 C27.0863964,5.65543633 27.3454907,5.74929541 27.6798977,5.76067227 C27.9276241,5.76920491 28.1549829,5.72748977 28.3633952,5.63552683 C28.5708602,5.54308985 28.7295377,5.41273002 28.8394278,5.24492135 C28.9497916,5.07663866 29.0075786,4.90598578 29.0132626,4.73296272 C29.0123153,4.58269339 28.9933687,4.46845076 28.9568966,4.39023486 C28.9208981,4.31154493 28.8768473,4.2489722 28.8233232,4.20299073 C28.7697992,4.15653523 28.6959075,4.11813833 28.6016484,4.08637794 C28.5448086,4.07784529 28.3174498,4.06504633 27.9181508,4.04845507 M29.8672793,0.973859082 L29.8928571,1.0416462 C29.797177,1.17674639 29.7337059,1.26918337 29.7038651,1.31943116 L29.0525767,1.29667744 C29.1013642,1.43604396 29.1236264,1.56640379 29.1188897,1.68823098 C29.1132058,1.86552036 29.0611027,2.03664727 28.9630542,2.20303383 C28.8640584,2.36894635 28.7248011,2.5087869 28.5433876,2.62255548 C28.3615006,2.7367981 28.1696665,2.81122172 27.9674119,2.84630037 C27.8352596,2.86952812 27.6581091,2.87521655 27.4364343,2.86289162 C27.280125,2.97808231 27.1816029,3.06530489 27.1399204,3.12455936 C27.1124479,3.16580047 27.0987116,3.21083387 27.0972906,3.25965956 C27.0949223,3.31512174 27.1100796,3.36536953 27.1418151,3.40992889 C27.1744979,3.45354019 27.22518,3.48577462 27.2952823,3.50521008 C27.3990148,3.53791855 27.5851648,3.55925016 27.8537325,3.56873088 L28.6115953,3.57773756 C28.8759,3.58721827 29.074839,3.62845938 29.2084123,3.70240896 C29.3429329,3.77588451 29.4405078,3.88491273 29.5011368,4.02901961 C29.5617658,4.17265245 29.5887647,4.33382461 29.5830807,4.51158802 C29.5740811,4.75287223 29.4869269,4.99557854 29.3206707,5.23923292 C29.1544146,5.48336134 28.9133194,5.67155354 28.5973854,5.8047576 C28.281925,5.93796165 27.9309397,5.99769015 27.5458507,5.98441715 C27.2228117,5.97304029 26.9499811,5.91331179 26.7273588,5.8047576 C26.504263,5.6962034 26.3413225,5.55588882 26.2380637,5.38428787 C26.1357522,5.21173885 26.0879121,5.0335014 26.0940697,4.84862745 C26.0973854,4.74576169 26.1163319,4.65000646 26.1513831,4.56088774 C26.1859606,4.47224305 26.2428003,4.3774359 26.3209549,4.27741435 C26.6103638,4.15653523 26.8192497,4.04892911 26.9461917,3.95507003 C26.7543577,3.88491273 26.6316787,3.82139194 26.5786283,3.76308554 C26.5260515,3.70525318 26.5004737,3.64789485 26.5023683,3.59195863 C26.504263,3.54550312 26.5440508,3.41988365 26.6212581,3.21699634 C26.7382531,3.1250334 26.9234559,2.99562163 27.1744979,2.82876104 C26.9660856,2.76334411 26.8074081,2.68939453 26.6970443,2.60738634 C26.5857332,2.52490412 26.501421,2.41587589 26.4426866,2.27935359 C26.3844259,2.14283129 26.358848,1.99398406 26.3640584,1.83281189 C26.3721106,1.59484594 26.4403183,1.38437406 26.5682077,1.19997414 C26.6970443,1.01699634 26.9059303,0.87099332 27.1981811,0.762913165 C27.489011,0.655307046 27.757105,0.60553329 28.0024631,0.614065934 C28.1616142,0.619754363 28.3117658,0.650566688 28.4543388,0.706976945 C28.5954907,0.763387201 28.729064,0.845395389 28.8536377,0.952527473 C29.2931982,0.965800474 29.6299735,0.972911011 29.8672793,0.973859082" id="Fill-21" fill="#B8B3A7"></path>
                    <path d="M16.0673551,33.628761 C15.5809019,33.4168671 15.161709,33.1139582 14.8102501,32.7233527 C14.4578439,32.3317992 14.1717507,31.8890498 13.9548124,31.3974747 C13.7359795,30.9049515 13.5664077,30.4019996 13.4437287,29.8871967 C13.2419477,29.0144969 13.1415309,28.1375307 13.1415309,27.2544021 C13.1415309,26.1792889 13.2315271,25.3829089 13.4096249,24.8628916 C13.5891436,24.3424003 14.0140205,23.847981 14.6842554,23.3777376 C15.623058,22.7174057 16.5841228,22.3879509 17.5674498,22.3879509 C18.3489958,22.3879509 19.0907541,22.5955785 19.7879879,23.0084637 C20.4866427,23.423245 21.0346722,24.0684077 21.4311292,24.94727 C21.8280599,25.8247102 22.0265252,26.8505236 22.0265252,28.0247102 C22.0265252,28.65897 21.9692118,29.254833 21.8579007,29.8151433 C22.7848617,29.3595949 23.7544524,28.9689894 24.763831,28.6485413 C24.8661425,28.088231 24.9267715,27.4985305 24.9267715,26.8671148 C24.9267715,24.7657143 24.3953202,23.1601551 23.3343122,22.0532816 C22.272357,20.944986 20.7694202,20.3922603 18.8245548,20.3922603 C18.2656309,20.3922603 17.78723,20.4391898 17.3912467,20.533997 C16.9947897,20.6292782 16.6821713,20.7383064 16.4519704,20.8610817 C16.2231906,20.984331 15.7064229,21.3597673 14.902141,21.9854945 C14.5885752,22.2206162 14.107806,22.5676104 13.4598333,23.026003 C13.582986,21.5825641 13.8543956,20.3045637 14.2726412,19.1915277 C14.6923077,18.0789657 15.3317545,16.9943719 16.1933498,15.9372721 C17.0525767,14.8806464 18.1600038,13.9377893 19.5118416,13.1101228 C20.8641531,12.2834044 22.1610459,11.7292566 23.4015726,11.4491015 L23.4015726,11.2481103 L22.1776241,10.66078 C20.6017431,11.0414307 19.0571239,11.6984443 17.5423456,12.6322948 C16.0270936,13.5656712 14.7230959,14.6540573 13.6275104,15.895083 C12.5328723,17.1365826 11.668435,18.6188925 11.0379879,20.3415385 C10.4070671,22.0632364 10.0906593,23.9432622 10.0906593,25.9773497 C10.0906593,28.9419694 10.7608943,31.1983797 12.1023115,32.7475285 C13.043956,33.8354406 14.162751,34.5332213 15.4511178,34.8565137 C15.758526,34.4796552 16.0806177,34.1146477 16.4207086,33.761017 C16.2999242,33.7221461 16.1824555,33.6785348 16.0673551,33.628761" id="Fill-23" fill="#B8B3A7"></path>
                    <path d="M28.2725464,23.2351476 C28.2725464,19.8329929 28.4525388,17.395501 28.8111027,15.9236199 C29.1687192,14.4517388 29.6930656,13.4358802 30.3803524,12.876044 C31.0690603,12.3162077 31.8501326,12.0360526 32.7230959,12.0360526 C33.5183782,12.0360526 34.1990337,12.2413101 34.7641152,12.6494549 C35.3291967,13.0580737 35.7687571,13.5809351 36.0823228,14.2189873 C36.5640394,15.2158845 36.9079197,16.4886705 37.114911,18.0392415 C37.3223759,19.5898125 37.4256347,21.3385305 37.4256347,23.2858694 C37.4256347,25.281086 37.3304282,26.9838225 37.1400152,28.395975 C37.9357711,28.6135574 38.7083175,28.8761732 39.4571808,29.178134 C39.5490716,28.8690627 39.6343312,28.554303 39.7063282,28.2272183 C40.0975748,26.4377332 40.2927245,24.2908253 40.2927245,21.7841241 C40.2927245,19.860487 40.1250474,18.0819048 39.7892194,16.4493256 C39.6447518,15.7335316 39.3965517,15.0201077 39.0441455,14.3100022 C38.6926866,13.5994225 38.2621258,13.0011894 37.7529367,12.5143547 C37.2442213,12.027994 36.5900909,11.6250636 35.7910193,11.3060375 C34.9919477,10.9884335 34.1232474,10.8286835 33.1849185,10.8286835 C31.3295756,10.8286835 29.7991664,11.3937341 28.5913225,12.5228873 C27.3844259,13.6534626 26.5521978,15.0850506 26.0936908,16.8176514 C25.6361311,18.5516742 25.4059303,21.0123939 25.4059303,24.2007585 C25.4059303,25.5100452 25.5380826,26.8932816 25.7976506,28.3495195 C26.6976127,28.1134497 27.622679,27.9309459 28.5714286,27.8105408 C28.3743842,26.3144839 28.2725464,24.7895109 28.2725464,23.2351476" id="Fill-25" fill="#B8B3A7"></path>
                    <g id="Group-29" transform="translate(21.314892, 31.664120)">
                        <mask id="mask-2" fill="white">
                            <use xlink:href="#path-1"></use>
                        </mask>
                        <g id="Clip-28"></g>
                        <path d="M4.41957181,4.715376 C4.29168246,5.00406378 4.14295188,5.30412842 3.97338007,5.61699203 C3.80570292,5.92843353 3.61955286,6.23845292 3.41587723,6.5404137 C3.21409625,6.84664081 3.00142099,7.11873734 2.78116711,7.35954751 C2.5585449,7.60225382 2.32360743,7.79566042 2.07635468,7.94308554 C1.83004926,8.08814049 1.57663888,8.16066796 1.32228117,8.16066796 C1.02103069,8.16066796 0.782777567,8.06254256 0.60657446,7.8643956 C0.430371353,7.66624865 0.298692687,7.42543848 0.212959454,7.14196509 C0.126752558,6.85612153 0.0722811671,6.55795303 0.0495452823,6.24508942 C0.0272830618,5.93364792 0.0154414551,5.66249946 0.0154414551,5.43306615 C0.0154414551,4.79975436 0.03486169,4.14985133 0.0722811671,3.48667529 C0.109700644,2.82302521 0.20585449,2.18118078 0.365005684,1.56493428 C0.387267905,1.4777117 0.416161425,1.37389787 0.448844259,1.25538892 C0.482948086,1.13687998 0.523209549,1.01742297 0.573417961,0.899862099 C0.622205381,0.779457014 0.678571429,0.673273002 0.741095112,0.574199526 C0.805513452,0.474177979 0.875142099,0.405442793 0.950928382,0.365623788 C1.00161046,0.333389356 1.05702918,0.315850032 1.11292156,0.311109675 C1.17023494,0.30826546 1.22802198,0.305421245 1.288651,0.305421245 C1.39285714,0.305421245 1.48380068,0.331493213 1.55816597,0.383163111 C1.63253126,0.435307046 1.6718454,0.523951735 1.6718454,0.65099332 C1.6718454,0.690812325 1.66758242,0.723994829 1.66047745,0.750066796 C1.65147783,0.777560871 1.64484653,0.812165482 1.63774157,0.851036415 C1.44259189,1.61755225 1.30380826,2.41535445 1.22091701,3.24396897 C1.13802577,4.06926524 1.09729064,4.8784443 1.09729064,5.67103211 C1.09729064,5.77247576 1.10107995,5.91421245 1.10960591,6.09007972 C1.11481622,6.26879121 1.13613111,6.44323637 1.17023494,6.61341521 C1.20433876,6.78359405 1.25928382,6.93007111 1.33980674,7.05237233 C1.41843501,7.17419953 1.52832512,7.23535014 1.6718454,7.23535014 C1.86604775,7.23535014 2.07303903,7.13390649 2.29045093,6.92722689 C2.50833649,6.72244344 2.7295377,6.45698341 2.94931792,6.13179487 C3.17004547,5.80708037 3.38603638,5.44681319 3.59681698,5.04577893 C3.80712391,4.64664081 4.00179992,4.25793148 4.17752937,3.87728076 C4.35420614,3.49994829 4.50909435,3.14584357 4.64550966,2.82302521 C4.77908299,2.4968886 4.88139447,2.25181211 4.94865479,2.08684766 C4.97186434,2.03138548 5.0002842,1.96549451 5.03438803,1.89059685 C5.0665972,1.81475113 5.09880637,1.73795734 5.12912088,1.65737126 C5.15943539,1.58057746 5.18785525,1.50378367 5.21343312,1.42698987 C5.24043198,1.35161819 5.2574839,1.28714932 5.26458886,1.2312131 C5.27927245,1.12882137 5.29395604,1.03970265 5.30390299,0.964804999 C5.31479727,0.890855419 5.33421751,0.824964447 5.35979538,0.768554191 C5.38632058,0.714988149 5.42800303,0.664740358 5.48436908,0.621129067 C5.5397878,0.577043741 5.62125805,0.536276665 5.72641152,0.495509588 C5.75625237,0.480340444 5.78514589,0.474177979 5.8154604,0.474177979 L5.90640394,0.474177979 C6.03334596,0.474177979 6.11339523,0.511152769 6.14370974,0.591738849 C6.17307692,0.667584572 6.18633952,0.764761905 6.18633952,0.876634346 C6.18633952,0.9714415 6.18349754,1.06767076 6.17165593,1.16674424 C6.15981432,1.26486964 6.14655172,1.36394312 6.1323418,1.45732816 C6.11623721,1.63983193 6.10013263,1.82043956 6.08165972,1.99820297 C6.06271315,2.17501832 6.04092459,2.35515191 6.01866237,2.53670761 C5.98929519,2.79979746 5.94619174,3.1264081 5.89029936,3.52175393 C5.83298598,3.91709976 5.76335733,4.34610213 5.68093975,4.80876104 C5.5994695,5.27284206 5.49952634,5.75683258 5.3820576,6.26357682 C5.26695718,6.77079509 5.1314892,7.26521439 4.97707465,7.75204913 C4.82313376,8.2393579 4.64787798,8.70012066 4.45367563,9.14097393 C4.25852596,9.57993105 4.04111406,9.96579616 3.79907162,10.2971472 C3.5593975,10.6299203 3.29319818,10.8925361 3,11.0859427 C2.70680182,11.2807714 2.38707844,11.3770006 2.04367185,11.3770006 C1.83336491,11.3770006 1.62684729,11.3343374 1.42411898,11.2471148 C1.22091701,11.1575221 1.04471391,11.0447016 0.894562334,10.9020168 C0.834880637,10.8484508 0.768093975,10.7688128 0.696570671,10.6711614 C0.625521031,10.5720879 0.591417203,10.4843913 0.591417203,10.4047533 C0.591417203,10.2852963 0.64873058,10.2260418 0.770935961,10.2260418 C0.830143994,10.2260418 0.896930656,10.2592243 0.972243274,10.3279595 C1.04802956,10.3943245 1.13613111,10.4678 1.2370216,10.5455419 C1.33980674,10.6251799 1.45822281,10.6991295 1.5922698,10.7669166 C1.72821144,10.8342297 1.88499432,10.8669382 2.06498674,10.8669382 C2.27671466,10.8669382 2.47186434,10.8138462 2.65090944,10.7067141 C2.83042819,10.6010041 2.98436908,10.4583193 3.11320576,10.2852963 C3.27851459,10.055863 3.43292914,9.78187029 3.57455476,9.46237018 C3.7171277,9.14097393 3.84691171,8.79397975 3.96343312,8.4223357 C4.07948086,8.05211377 4.18273967,7.66340444 4.27273588,7.25952596 C4.36320576,6.85612153 4.43993937,6.45982762 4.50388405,6.06732601 C4.56830239,5.6762465 4.62135279,5.29843999 4.66208791,4.93295841 C4.70282304,4.57079509 4.73076923,4.24702866 4.74592649,3.96071105 C4.65593028,4.17450119 4.5455665,4.42574014 4.41957181,4.715376" id="Fill-27" fill="#B8B3A7" mask="url(#mask-2)"></path>
                    </g>
                    <path d="M29.2267905,35.9878474 C29.113111,36.1599224 29.0074839,36.3590175 28.9103827,36.5851325 C28.8132815,36.8126697 28.7299166,37.0387847 28.66313,37.2663219 C28.5949223,37.493385 28.5541872,37.6578755 28.5390299,37.7597931 C28.6593407,37.6829994 28.7905457,37.5768153 28.9340659,37.4450334 C29.0761652,37.3127774 29.2068966,37.1644042 29.3286283,37.002758 C29.447518,36.8406378 29.5488822,36.6718811 29.6312997,36.5017022 C29.7132437,36.3305753 29.7549261,36.1656109 29.7549261,36.0063348 C29.7549261,35.9432881 29.7421372,35.8811894 29.7160856,35.8209869 C29.6895604,35.7607843 29.6384047,35.7313941 29.5630921,35.7313941 C29.4522546,35.7313941 29.3381016,35.8176686 29.2267905,35.9878474 M28.256726,39.997716 C28.0999432,39.9071752 27.9696855,39.7886662 27.8692687,39.6412411 C27.7679045,39.4957121 27.6944865,39.3255333 27.6499621,39.1311786 C27.6040167,38.937772 27.5817545,38.7329886 27.5817545,38.5201465 C27.5817545,38.2523163 27.6305419,37.9276018 27.7281167,37.5478992 C27.8252179,37.1672484 27.9644752,36.8017669 28.1435203,36.4500323 C28.3254074,36.0987718 28.5409246,35.7991812 28.792914,35.5555268 C29.043956,35.3080802 29.319155,35.186253 29.6204055,35.186253 C29.8231338,35.186253 29.9789693,35.253566 30.0879121,35.3886662 C30.1959075,35.5232924 30.2513263,35.6915751 30.2513263,35.8982547 C30.2513263,36.0987718 30.1930656,36.3182504 30.0779651,36.5600086 C29.9600227,36.8017669 29.8131868,37.0359405 29.6374574,37.2625296 C29.4603069,37.4876966 29.2722622,37.6896359 29.0685866,37.8626589 C28.8644373,38.0375781 28.6778136,38.1570351 28.5049261,38.2200819 C28.467033,38.4035337 28.4485601,38.5689722 28.4485601,38.7201896 C28.4485601,38.9894419 28.5049261,39.2013359 28.6176582,39.3568197 C28.7299166,39.5108813 28.917014,39.5876751 29.1803714,39.5876751 C29.4209928,39.5876751 29.6459833,39.5393234 29.8558166,39.4393019 C30.0670709,39.3402284 30.2631679,39.2146089 30.442213,39.0605473 C30.6217317,38.9060116 30.7875142,38.7310924 30.9376658,38.5329455 C31.088291,38.3347985 31.219496,38.1366516 31.3331754,37.9394527 C31.3705949,37.8764059 31.4151194,37.8081448 31.4672224,37.7365654 C31.5197992,37.66546 31.5875332,37.6313295 31.6708981,37.6313295 C31.7068966,37.6313295 31.7433687,37.6422323 31.7769989,37.66546 C31.8101554,37.6896359 31.8276809,37.7199741 31.8276809,37.7597931 C31.8276809,37.8403792 31.8201023,37.903426 31.8049451,37.9508296 C31.7897878,37.996811 31.7642099,38.0541694 31.7263168,38.116268 C31.5837438,38.3869425 31.4089617,38.6443439 31.2029178,38.8875242 C30.9949792,39.1340228 30.7699886,39.347813 30.5217886,39.533161 C30.2721675,39.7161388 30.0073892,39.8626158 29.7217696,39.971644 C29.4356764,40.0792502 29.1386889,40.1337643 28.8317545,40.1337643 C28.6067639,40.1337643 28.4149299,40.0892049 28.256726,39.997716" id="Fill-30" fill="#B8B3A7"></path>
                    <path d="M36.2004074,38.3071148 C36.1369363,38.4004999 36.0872016,38.481086 36.0497821,38.5441327 C35.944155,38.693928 35.8162656,38.8674251 35.6661141,39.0674682 C35.5164362,39.2646671 35.353022,39.449541 35.1768189,39.6235122 C35.0001421,39.7984314 34.8120974,39.9439604 34.6122111,40.0634174 C34.4142194,40.1819263 34.2171751,40.2402327 34.0224991,40.2402327 C33.834928,40.2402327 33.6852501,40.1729196 33.5715707,40.0330791 C33.4588386,39.8960827 33.3716844,39.7282741 33.31295,39.5339194 C33.2518473,39.3405128 33.2139541,39.1404697 33.1997442,38.9290498 C33.1855343,38.72 33.1807977,38.5441327 33.1893236,38.4004999 C33.1121163,38.5199569 33.0173835,38.6683301 32.9008621,38.8460935 C32.783867,39.0238569 32.6559776,39.19688 32.512931,39.3642146 C32.3703581,39.528231 32.2216275,39.6709158 32.0676866,39.7913208 C31.9137457,39.9088817 31.7616995,39.9690842 31.6115479,39.9690842 C31.4770273,39.9690842 31.3638215,39.9245249 31.2733516,39.8377763 C31.1843028,39.7496057 31.1142005,39.6448438 31.065413,39.5173282 C31.016152,39.3902866 30.9825218,39.2561345 30.9645225,39.1134497 C30.9446286,38.9726611 30.9351554,38.8460935 30.9351554,38.732799 C30.9351554,38.4265719 31.006205,38.0738892 31.1497253,37.6775953 C31.2922982,37.2813014 31.4822376,36.9082353 31.7190697,36.5574488 C31.9554282,36.2038181 32.2249432,35.910864 32.5295093,35.67195 C32.8336017,35.4339841 33.1504831,35.3164232 33.4815745,35.3164232 C33.563992,35.3164232 33.6464096,35.3562422 33.7297745,35.4339841 C33.8121921,35.5145701 33.8524536,35.5961043 33.8524536,35.685223 C33.8524536,35.725042 33.842033,35.7534842 33.8197707,35.7729196 C33.7960875,35.7933032 33.770036,35.8108425 33.7406688,35.8250636 C33.5374668,35.9535273 33.3442118,36.0857832 33.1604301,36.2246757 C32.9761747,36.3616721 32.8004452,36.5228442 32.6365574,36.7034518 C32.3438329,37.0210558 32.1107901,37.3756346 31.9379026,37.76624 C31.7654888,38.1596897 31.6783346,38.5811075 31.6783346,39.0300194 C31.6783346,39.0793191 31.6868606,39.1366774 31.7020178,39.2068347 C31.7162277,39.2803103 31.7569629,39.3153889 31.8256442,39.3153889 C31.9080618,39.3153889 32.002321,39.262771 32.1074744,39.1561129 C32.2126279,39.0494549 32.3220443,38.9134066 32.4328818,38.7522344 C32.5465612,38.5896402 32.656925,38.4071364 32.7668151,38.2042491 C32.8743369,38.004206 32.977122,37.8079552 33.0765915,37.620237 C33.173219,37.4282525 33.2570576,37.2514372 33.3290546,37.0907391 C33.4005779,36.9286188 33.4536283,36.8082137 33.4924687,36.7276277 C33.5294146,36.6413532 33.576781,36.559819 33.6336207,36.4849214 C33.6890394,36.4109718 33.770036,36.3721008 33.8756631,36.3721008 C33.9358185,36.3721008 33.9931319,36.3839517 34.0499716,36.4090756 C34.1063376,36.4323034 34.1342838,36.4839733 34.1342838,36.5626632 C34.1342838,36.6508339 34.1087059,36.7636544 34.0551819,36.9063392 C34.0021315,37.049972 33.9609227,37.1646886 33.9310818,37.2504891 C33.8718738,37.4571687 33.8287704,37.6756992 33.8027188,37.9089248 C33.7752463,38.1440465 33.762931,38.361629 33.762931,38.5692566 C33.762931,38.6323034 33.7634047,38.7256884 33.7690887,38.8532041 C33.772878,38.9792976 33.7851933,39.1077613 33.8079291,39.236699 C33.8297177,39.368955 33.8657162,39.4827236 33.9154509,39.5827451 C33.963291,39.6818186 34.0329197,39.7311183 34.1233895,39.7311183 C34.2583839,39.7311183 34.4090091,39.6690196 34.5743179,39.541978 C34.7391531,39.4144624 34.9001989,39.2660892 35.0584028,39.0968584 C35.2156593,38.9266796 35.3620216,38.7508123 35.4984369,38.5692566 C35.6329576,38.3867529 35.7343217,38.2402758 35.8011084,38.1293514 C35.8394752,38.0644085 35.8802103,38.0008877 35.9247347,37.9331006 C35.9702065,37.8653135 36.0346249,37.8330791 36.1170424,37.8330791 C36.2368795,37.8330791 36.2965612,37.9079767 36.2965612,38.057298 C36.2965612,38.1293514 36.2652994,38.2108856 36.2004074,38.3071148" id="Fill-32" fill="#B8B3A7"></path>
                    <path d="M37.3790261,36.9896272 C37.2402425,36.8701702 37.08867,36.7829476 36.9228875,36.7274855 C36.8622584,36.9033527 36.7964191,37.0849084 36.7253695,37.2740487 C36.6543198,37.463663 36.5742706,37.6542254 36.483327,37.8452618 C36.3933308,38.033928 36.2962296,38.2173799 36.1910762,38.3904029 C36.0849754,38.5624779 35.9689276,38.7198578 35.8415119,38.8535359 C35.8040925,38.8933549 35.758147,38.9331739 35.706044,38.9729929 C35.6529936,39.0109158 35.5980485,39.0303512 35.5369458,39.0303512 C35.4403183,39.0303512 35.3905836,38.9791554 35.3905836,38.8762896 C35.3905836,38.8303081 35.4000568,38.7829045 35.4185297,38.7392933 C35.4374763,38.6971041 35.4621069,38.656337 35.492895,38.6146218 C35.7103069,38.2832708 35.9144562,37.9433872 36.1048693,37.5949709 C36.298598,37.2470287 36.4160667,36.8701702 36.4610648,36.4672398 C36.3559113,36.3250291 36.280125,36.1695454 36.2356006,35.9988925 C36.1910762,35.8287136 36.1688139,35.6528464 36.1688139,35.4712907 C36.1688139,35.3760095 36.1816029,35.2537083 36.2076544,35.1034389 C36.2346533,34.9536436 36.2749147,34.8066925 36.3312808,34.6649558 C36.3881205,34.521323 36.4563282,34.3990218 36.5396931,34.2942599 C36.6221106,34.1947123 36.7196855,34.1425684 36.8324176,34.1425684 C36.9148352,34.1425684 36.9783062,34.1804913 37.0233043,34.2544409 C37.0683024,34.3298125 37.1061955,34.4165611 37.13651,34.5156346 C37.1672982,34.614708 37.1862448,34.7147296 37.1933498,34.8175953 C37.2009284,34.9214092 37.2051914,35.0038914 37.2051914,35.0674122 C37.2051914,35.2565525 37.1933498,35.4471148 37.1710875,35.6376772 C37.2601364,35.7784658 37.3813945,35.8960267 37.5305987,35.9870416 C37.6812239,36.0785305 37.8294809,36.1766559 37.9763168,36.284262 C38.122679,36.390446 38.2486737,36.5203318 38.3533535,36.6748675 C38.4575597,36.8294031 38.5106101,37.0379789 38.5106101,37.2977505 C38.5106101,37.4323766 38.4921372,37.5878604 38.4551914,37.7599354 C38.3940887,38.0377203 38.3415119,38.3145572 38.2969875,38.5913941 C38.2510421,38.8672829 38.2292535,39.1498082 38.2292535,39.4337557 C38.2292535,39.5124456 38.2382531,39.6067787 38.2576734,39.7134368 C38.2761463,39.8200948 38.337249,39.8727128 38.4433498,39.8727128 C38.5707654,39.8727128 38.7190224,39.8049257 38.8890678,39.6707735 C39.0572186,39.5366214 39.2239485,39.3792415 39.3892573,39.1967378 C39.5550398,39.01376 39.708507,38.8303081 39.85108,38.6440121 C39.9941266,38.4600862 40.0983327,38.3098168 40.167014,38.1998406 C40.2039598,38.1453264 40.2470633,38.0841758 40.296798,38.0163887 C40.3441645,37.9495497 40.4033725,37.914471 40.4711065,37.914471 C40.5383668,37.914471 40.5828912,37.9414911 40.6004168,37.9912648 C40.6184161,38.0443568 40.628363,38.1007671 40.628363,38.1638138 C40.628363,38.2107434 40.6184161,38.2562508 40.6004168,38.2941737 C40.5828912,38.3349407 40.5611027,38.3738117 40.5383668,38.4136307 C40.4483706,38.5624779 40.3143236,38.7535143 40.1381205,38.9838957 C39.9619174,39.212381 39.7710307,39.4337557 39.5630921,39.6465977 C39.3579955,39.86181 39.1434255,40.0405214 38.9222243,40.1922129 C38.7010231,40.3439043 38.4992421,40.4197501 38.3192497,40.4197501 C38.132626,40.4197501 37.9848427,40.3595475 37.8801629,40.2391424 C37.7750095,40.1192114 37.6954339,39.9746305 37.6438045,39.8049257 C37.5912277,39.636643 37.5594922,39.4588796 37.5476506,39.2673691 C37.5367563,39.0791769 37.5305987,38.9127903 37.5305987,38.7701056 C37.5305987,38.5477828 37.540072,38.3302004 37.5594922,38.1164103 C37.5774915,37.9035682 37.5864911,37.6850377 37.5864911,37.463663 C37.5864911,37.2664641 37.5178098,37.1081362 37.3790261,36.9896272" id="Fill-34" fill="#B8B3A7"></path>
                    <path d="M41.9074934,36.0887697 C41.9974896,36.3163068 42.1021694,36.5471622 42.2229538,36.7765956 C42.3427908,37.0055548 42.4588386,37.2368843 42.5720443,37.4691618 C42.6843028,37.7042836 42.778562,37.9431976 42.8529272,38.1878 C42.9277662,38.4347727 42.964712,38.6841155 42.964712,38.9348804 C42.964712,39.0951045 42.9443444,39.2524844 42.904083,39.4108123 C42.8624005,39.5681922 42.7975085,39.7160914 42.706565,39.8497694 C42.842033,39.8578281 43.0002368,39.7957294 43.1802293,39.6653695 C43.359748,39.5340616 43.5402141,39.38 43.7206802,39.2031847 C43.9006726,39.0235251 44.0659814,38.8433915 44.216133,38.6570955 C44.3662846,38.4707994 44.4752274,38.3219522 44.5429613,38.2110278 C44.5794335,38.1569877 44.6253789,38.0915708 44.6784293,38.0161991 C44.7300587,37.9413014 44.7944771,37.9033786 44.8697897,37.9033786 C44.9375237,37.9033786 44.9815745,37.9275544 45.004784,37.9740099 C45.0275199,38.0237837 45.0388878,38.0764016 45.0388878,38.1403965 C45.0388878,38.1802155 45.0246779,38.2219306 44.9986264,38.2645938 C44.9725748,38.3072571 44.9522073,38.3499203 44.9375237,38.3902133 C44.7267431,38.7386296 44.5050682,39.0505451 44.2734464,39.327382 C44.0404036,39.605167 43.7869932,39.8374445 43.5122679,40.0275329 C43.2389636,40.2171472 42.9339238,40.36078 42.6004642,40.4608016 C42.2655836,40.558927 41.8961254,40.6087007 41.4911425,40.6087007 C41.2727833,40.6087007 41.0383194,40.5845249 40.7868037,40.5375953 C40.5348143,40.4901918 40.3268757,40.3830597 40.1610932,40.2171472 C40.1236737,40.1782762 40.0938329,40.1375092 40.071097,40.0995863 C40.0493085,40.0588192 40.0374668,40.0114156 40.0374668,39.9569015 C40.0374668,39.8374445 40.0976222,39.77819 40.2179329,39.77819 C40.262931,39.77819 40.2989295,39.7857746 40.3235601,39.8023659 C40.3515063,39.817061 40.3832418,39.8374445 40.4201876,39.8625684 C40.5476033,39.9488429 40.6764399,40.0080974 40.8038556,40.0393838 C40.930324,40.0706701 41.0700549,40.0867873 41.2202065,40.0867873 C41.521457,40.0867873 41.7478685,39.98961 41.9018094,39.7957294 C42.0552766,39.6023228 42.1324839,39.3553501 42.1324839,39.0552855 C42.1324839,38.8727817 42.108327,38.6793751 42.0595396,38.4726955 C42.0107522,38.2674381 41.9491758,38.0617065 41.8748105,37.856449 C41.7985506,37.6507175 41.7142383,37.4516225 41.6199792,37.2563198 C41.5261936,37.0638612 41.4343028,36.8960526 41.3447802,36.7533678 C41.2907825,36.9107477 41.2258905,37.086615 41.1467886,37.2814437 C41.0667393,37.4748502 40.9800587,37.6654126 40.8820102,37.856449 C40.7853827,38.0470114 40.6807029,38.227619 40.5722338,38.4006421 C40.463291,38.5755613 40.3534009,38.7229864 40.2397215,38.8414954 C40.202302,38.8803663 40.1606196,38.9230295 40.1108848,38.9642706 C40.062571,39.0078819 40.007626,39.0301616 39.9479443,39.0301616 C39.8418435,39.0301616 39.7892668,38.9746994 39.7892668,38.8651972 C39.7892668,38.8007283 39.803003,38.7457401 39.8295282,38.6978625 C39.8546324,38.6495109 39.8868416,38.6035294 39.9247347,38.5551778 C40.4358185,37.882995 40.8190129,37.127382 41.0728969,36.2897608 C41.0056366,36.0840293 40.9720064,35.8740315 40.9720064,35.6611894 C40.9720064,35.5417324 40.9914267,35.4028399 41.0293198,35.244512 C41.065792,35.0880802 41.1183687,34.9368627 41.1861027,34.794652 C41.254784,34.6538634 41.3400436,34.5306141 41.445197,34.4268003 C41.5498768,34.3239345 41.6711349,34.2722646 41.8056556,34.2722646 C41.8748105,34.2722646 41.9321239,34.2945443 41.9790167,34.3372075 C42.0287514,34.3812928 42.0675919,34.437229 42.0936434,34.5045421 C42.1192213,34.5704331 42.1376942,34.6396423 42.1490621,34.7121698 C42.1609038,34.7823271 42.1661141,34.8501142 42.1661141,34.913635 C42.1661141,35.1108339 42.1391152,35.310877 42.0874858,35.5118681 C42.0349091,35.7147554 41.9752274,35.9062659 41.9074934,36.0887697" id="Fill-36" fill="#B8B3A7"></path>
                    <path d="M13.2156593,37.9895583 C16.1192213,31.7076363 23.0735601,27.2810903 31.1945339,27.2810903 C36.9888689,27.2810903 42.1887552,29.5365525 45.7483422,33.108412 C45.7483422,33.108412 28.3198655,19.8178711 13.2156593,37.9895583" id="Fill-38" fill="#B8B3A7"></path>
                    <polygon id="Fill-40" fill="#B8B3A7" points="46.1806556 20.1106356 49.4740432 20.1106356 49.4740432 21.1994958 46.1806556 21.1994958 46.1806556 24.4802973 45.0703865 24.4802973 45.0703865 21.1994958 41.7769989 21.1994958 41.7769989 20.1106356 45.0703865 20.1106356 45.0703865 16.7999698 46.1806556 16.7999698"></polygon>
                </g>
            </g>
        </g>
    </g>
</svg>