<?xml version="1.0" encoding="UTF-8"?>
<svg width="22px" height="25px" viewBox="0 0 22 25" version="1.1" xmlns="http://www.w3.org/2000/svg" xmlns:xlink="http://www.w3.org/1999/xlink">
    <!-- Generator: Sketch 47.1 (45422) - http://www.bohemiancoding.com/sketch -->
    <title>icon-shopping-bag</title>
    <desc>Created with Sketch.</desc>
    <defs></defs>
    <g id="•-DESIGNER-BRAND-IFRAME" stroke="none" stroke-width="1" fill="none" fill-rule="evenodd">
        <g id="DESIGNER-BRAND-IFRAME---Mobile" transform="translate(-333.000000, -20.000000)" fill="#555555">
            <g id="icon-shopping-bag" transform="translate(333.000000, 20.000000)">
                <g id="Capa_1">
                    <g id="Bags_2_">
                        <path d="M20.3373016,4.6875 L15.6498512,4.6875 C15.4951389,2.1265873 13.5498016,0 10.9623016,0 C8.37480159,0 6.42946429,2.1265873 6.27480159,4.6875 L1.58730159,4.6875 L0.0248015873,25 L21.8998016,25 L20.3373016,4.6875 L20.3373016,4.6875 Z M10.9623016,1.07271825 C12.9712302,1.07271825 14.4333333,2.990625 14.5833333,4.6875496 L7.34122024,4.6875496 C7.49280754,2.990625 8.95337302,1.07271825 10.9623016,1.07271825 L10.9623016,1.07271825 Z M2.65376984,5.75396825 L19.2708333,5.75396825 L20.8395833,23.9256944 L1.08348214,23.9256944 L2.65376984,5.75396825 L2.65376984,5.75396825 Z M8.01463294,8.06051587 C7.2890377,8.06051587 6.70014881,8.64940476 6.70014881,9.375 C6.70014881,10.1005952 7.2889881,10.6894841 8.01463294,10.6894841 C8.74027778,10.6894841 9.32911706,10.1005952 9.32911706,9.375 C9.32911706,8.64940476 8.74027778,8.06051587 8.01463294,8.06051587 L8.01463294,8.06051587 Z M13.9099702,8.06051587 C13.1843254,8.06051587 12.5954861,8.64940476 12.5954861,9.375 C12.5954861,10.1005952 13.1843254,10.6894841 13.9099702,10.6894841 C14.6355655,10.6894841 15.2244544,10.1005952 15.2244544,9.375 C15.2244544,8.64940476 14.6355655,8.06051587 13.9099702,8.06051587 L13.9099702,8.06051587 Z" id="Shape"></path>
                    </g>
                </g>
            </g>
        </g>
    </g>
</svg>