<?xml version="1.0" encoding="UTF-8"?>
<svg width="25px" height="25px" viewBox="0 0 25 25" version="1.1" xmlns="http://www.w3.org/2000/svg" xmlns:xlink="http://www.w3.org/1999/xlink">
    <!-- Generator: Sketch 47.1 (45422) - http://www.bohemiancoding.com/sketch -->
    <title>icon-search</title>
    <desc>Created with Sketch.</desc>
    <defs></defs>
    <g id="•SPLASH-HOME" stroke="none" stroke-width="1" fill="none" fill-rule="evenodd">
        <g id="HOME---LANDING---Mobile" transform="translate(-335.000000, -62.000000)" fill="#555555">
            <g id="NAV-MOBILE">
                <g id="icon-search" transform="translate(335.000000, 62.000000)">
                    <g id="Capa_1">
                        <path d="M24.0035359,24.197759 L17.3057769,16.7579681 C19.1017928,14.9567231 19.9206673,12.6900398 19.9206673,9.95149402 C19.9206673,4.46394422 15.4566733,0 9.96912351,0 C4.48157371,0 0.0176294821,4.46394422 0.0176294821,9.95149402 C0.0176294821,15.438994 4.48157371,19.902988 9.96912351,19.902988 C12.3778386,19.902988 14.3376992,19.3321215 16.060757,17.9033865 L23.3202191,24.8545319 C23.4130976,24.9516434 23.537251,25 23.6619024,25 C23.7803785,25 23.8983566,24.9559263 23.9902888,24.8677789 C24.1788845,24.6863048 24.1845618,24.3863546 24.0035359,24.197759 L24.0035359,24.197759 Z M9.96912351,18.9552291 C5.00428287,18.9552291 0.965388446,14.9163347 0.965388446,9.95149402 C0.965388446,4.98665339 5.00428287,0.947758964 9.96912351,0.947758964 C14.9339641,0.947758964 18.9728586,4.98665339 18.9728586,9.95149402 C18.9728586,14.9163347 14.9335159,18.9552291 9.96912351,18.9552291 L9.96912351,18.9552291 Z" id="Shape"></path>
                    </g>
                </g>
            </g>
        </g>
    </g>
</svg>